<svg height="128" viewBox="0 0 1024 1024" width="128" xmlns="http://www.w3.org/2000/svg"><path d="m512 109.973333 348.16 201.002667v402.048l-348.16 201.002667-348.16-201.002667v-402.048z" fill="#00b3ff"/><path d="m860.16 329.024v109.952l-348.16 201.024-348.16-201.024v-109.952l348.16-201.024z" fill="#f97f26"/><path d="m163.84 438.976v-109.952l348.16-201.024v512z" fill="#ff962a"/><path d="m860.16 396.309333-348.16 201.024-348.16-201.024v-85.333333l348.16-201.002667 348.16 201.002667z" fill="#009ce5"/><path d="m860.16 396.309333-348.16 201.024v-487.36l348.16 201.002667z" fill="#00caff"/><path d="m860.16 310.976-348.16 201.024-348.16-201.024 348.16-201.002667z" fill="#00bdff"/><path d="m859.989333 310.890667-241.322666 137.109333-346.069334-199.808 239.402667-138.24z" fill="#20c5ff"/><path d="m859.925333 310.826667-91.925333 51.84-346.837333-200.256 90.837333-52.437334z" fill="#3fd0ff"/><path d="m163.84 438.976 348.16 201.024v274.026667l-348.16-201.002667z" fill="#009ce5"/><path d="m362.666667 827.818667-106.666667-61.589334v-146.026666l106.666667 61.568z" fill="#0773ca"/><path d="m277.418667 778.602667-21.418667-12.373334v-146.026666l21.418667 12.416z" fill="#035da5"/><path d="m256 598.869333 106.666667 61.568v21.333334l-106.666667-61.568z" fill="#00cbff"/><path d="m860.16 438.976v274.048l-348.16 201.002667v-274.026667z" fill="#00caff"/><path d="m768 598.954667-106.666667 61.504v167.466666l106.666667-61.504z" fill="#ff962a"/><path d="m768 598.954667-21.333333 12.288v167.466666l21.333333-12.288z" fill="#0069b0"/><path d="m768 598.954667-106.666667 61.504v23.509333l106.666667-61.504z" fill="#0096fc"/><path d="m811.818667 601.834667c-12.096.810667-22.72-8.149333-27.370667-20.352-5.098667-13.418667-4.138667-26.666667 3.136-38.464 6.954667-11.264 16.576-15.744 28.010667-14.08 5.653333.853333 10.666667 3.712 15.018666 8.256 2.346667 2.474667 2.304 3.562667-.32 5.418666l-6.826666 4.821334c-6.272 4.522667-12.565333 8.96-18.752 13.610666-3.306667 2.496-3.968 6.485333-2.133334 10.602667 2.005333 4.48 5.909333 5.504 10.026667 2.56 12.224-8.682667 24.405333-17.472 36.693333-26.090667 2.005333-1.429333 2.24-2.88 1.344-5.290666a48.362667 48.362667 0 0 0 -14.122666-20.693334c-13.845333-11.562667-28.586667-13.397333-43.733334-4.629333-15.082667 8.746667-23.274667 24.106667-24.64 44.352-1.130667 16.768 4.053333 30.976 13.909334 42.666667 13.738667 16.32 36.693333 18.88 52.458666 5.76 4.096-3.413333 4.096-3.413333 1.557334-8.597334-2.752-5.632-5.482667-6.698667-10.261334-3.861333-4.522667 2.645333-9.216 4.394667-13.994666 4.010667zm41.514666-23.850667c-.213333-4.032-2.005333-7.296-3.541333-10.666667-.490667-1.109333-1.301333-.682667-2.026667-.192-2.816 1.984-5.610667 3.968-8.448 5.909334-1.194667.832-1.408 1.813333-.704 3.264 1.6 3.349333 3.2 6.698667 4.757334 10.090666.661333 1.472 1.472 1.813333 2.624.896 1.706667-1.301333 3.456-2.538667 5.077333-3.946666a6.549333 6.549333 0 0 0 2.261333-5.333334z" fill="#fff"/></svg>