<svg height="128" viewBox="0 0 1024 1024" width="128" xmlns="http://www.w3.org/2000/svg"><path d="m102.4 0h819.2c56.32 0 102.4 46.08 102.4 102.4v819.2c0 56.32-46.08 102.4-102.4 102.4h-819.2c-56.32 0-102.4-46.08-102.4-102.4v-819.2c0-56.32 46.08-102.4 102.4-102.4z" fill="#ffd705"/><path d="m174.08 387.84s57.6 21.76 108.8 17.92c52.48-3.84 125.44-37.12 197.12-33.28 72.96 3.84 119.04 14.08 165.12 24.32s65.28 3.84 70.4 0 8.96-23.04-12.8-21.76-65.28 6.4-62.72-19.2 56.32-26.88 93.44-14.08c0 0-5.12-14.08-25.6-15.36-21.76-1.28-33.28-2.56-30.72-16.64 2.56-16.64 17.92-23.04 46.08-7.68 21.76 11.52 28.16 24.32 40.96 42.24 0 0 65.28 15.36 104.96 43.52 0 0 30.72 24.32 0 35.84-32 11.52-37.12-5.12-98.56 17.92-60.16 24.32-121.6 65.28-133.12 78.08s-15.36 17.92-6.4 26.88 3.84 16.64 0 20.48c-5.12 6.4-40.96 32-74.24 43.52-33.28 10.24-83.2 20.48-96 20.48 0 0 67.84 6.4 74.24 52.48 7.68 46.08-10.24 44.8-10.24 44.8s-85.76-85.76-153.6-90.88c-67.84-3.84-6.4-72.96 48.64-111.36 0 0-24.32 7.68-46.08 24.32 0 0-24.32-26.88-7.68-80.64 0 0-126.72 7.68-208.64-66.56-3.84-3.84-12.8-24.32 16.64-15.36z" fill="#fff"/></svg>